<svg xmlns="http://www.w3.org/2000/svg" viewBox="0 0 52 102.68">
  <defs>
    <style>
      .cls-1 {
        fill: #c8d3da;
      }

      .cls-1, .cls-2 {
        fill-rule: evenodd;
      }

      .cls-2 {
        fill: #abbee3;
      }
    </style>
  </defs>
  <title>can</title>
  <g id="Layer_2" data-name="Layer 2">
    <g id="Layer_1-2" data-name="Layer 1">
      <g id="bottom">
        <path id="bottom-2" data-name="bottom" class="cls-1" d="M49.7,97.78l-.5.3a9,9,0,0,0-2,1.9l-1.6,2.3a.91.91,0,0,1-.8.4H7.2a1.23,1.23,0,0,1-.8-.4L4.8,100a6.06,6.06,0,0,0-2-1.9l-.5-.3Z"/>
      </g>
      <g id="body">
        <path id="body-2" data-name="body" class="cls-2" d="M52,19.18v74.6a1,1,0,0,1-1,1H1a1,1,0,0,1-1-1V19.18a4.84,4.84,0,0,1,.7-2.6l5.7-9.3a1,1,0,0,1,.8-.5H44.7a.89.89,0,0,1,.8.5l5.7,9.3A3.85,3.85,0,0,1,52,19.18Z"/>
      </g>
      <g id="top">
        <path id="top-2" data-name="top" class="cls-1" d="M46,3.78a1,1,0,0,1-1,1H7a1,1,0,0,1-1-1,1.08,1.08,0,0,1,1-1H45A1,1,0,0,1,46,3.78Z"/>
      </g>
      <g id="open">
        <path id="open-2" data-name="open" class="cls-1" d="M28.86,4a.76.76,0,0,1-.18.48c0,.1-.12.08-.23.16a1,1,0,0,1-.75.18L12,2a1,1,0,0,1-.8-.65.81.81,0,0,1,0-.51.89.89,0,0,1,.18-.48c0-.09.12-.08.23-.16A.94.94,0,0,1,12.3,0L28.05,2.8a1,1,0,0,1,.8.64A3.92,3.92,0,0,1,28.86,4Z"/>
      </g>
    </g>
  </g>
</svg>
