<svg xmlns="http://www.w3.org/2000/svg" viewBox="0 0 56 199">
  <defs>
    <style>
      .cls-1 {
        fill: #9cd539;
      }

      .cls-1, .cls-2, .cls-4 {
        fill-rule: evenodd;
      }

      .cls-2, .cls-3 {
        fill: #68d539;
      }

      .cls-4 {
        fill: #d56139;
      }

      .cls-5 {
        fill: #fff;
      }
    </style>
  </defs>
  <title>soju</title>
  <g id="Layer_2" data-name="Layer 2">
    <g id="soju-bottle">
      <polygon id="neck" class="cls-1" points="39.44 31.97 16.56 31.97 17.92 15 38.08 15 39.44 31.97"/>
      <path id="top" class="cls-2" d="M56,92.61V97H0V92.61a19,19,0,0,1,2.77-9.88l9.85-16.17a11.15,11.15,0,0,0,1.57-4.85L16.41,34H39.59l2.22,27.74a11.15,11.15,0,0,0,1.57,4.85l9.85,16.17A19,19,0,0,1,56,92.61Z"/>
      <rect id="body" class="cls-3" y="99" width="56" height="74"/>
      <path id="bottom" class="cls-2" d="M0,175H56v15a9,9,0,0,1-9,9H9a9,9,0,0,1-9-9Z"/>
      <path id="cap" class="cls-4" d="M39,1V12a1,1,0,0,1-1,1H18a1,1,0,0,1-1-1V1a1,1,0,0,1,1-1H38A1,1,0,0,1,39,1Z"/>
      <rect id="label" class="cls-5" y="99" width="56" height="74"/>
    </g>
  </g>
</svg>
