<?xml version="1.0" encoding="utf-8"?>
<!-- Generator: Adobe Illustrator 23.0.5, SVG Export Plug-In . SVG Version: 6.00 Build 0)  -->
<svg version="1.1" id="Layer_1" xmlns="http://www.w3.org/2000/svg" xmlns:xlink="http://www.w3.org/1999/xlink" x="0px" y="0px"
	 viewBox="0 0 114 114" style="enable-background:new 0 0 114 114;" xml:space="preserve">
<style type="text/css">
	.st0{fill-rule:evenodd;clip-rule:evenodd;fill:#C8D3DA;}
	.st1{fill-rule:evenodd;clip-rule:evenodd;fill:#ABBEE3;}
</style>
<g id="bottom_1_">
	<path id="bottom" class="st0" d="M80.7,107l-0.5,0.3c-0.8,0.5-1.4,1.2-2,1.9l-1.6,2.3c-0.2,0.3-0.5,0.4-0.8,0.4H38.2
		c-0.3,0-0.6-0.2-0.8-0.4l-1.6-2.3c-0.5-0.8-1.2-1.4-2-1.9l-0.5-0.3H80.7z"/>
</g>
<g id="body_1_">
	<path id="body" class="st1" d="M83,28.4V103c0,0.6-0.5,1-1,1H32c-0.5,0-1-0.4-1-1V28.4c0-0.9,0.2-1.8,0.7-2.6l5.7-9.3
		c0.2-0.3,0.5-0.5,0.8-0.5h37.5c0.3,0,0.7,0.2,0.8,0.5l5.7,9.3C82.8,26.5,83,27.4,83,28.4z"/>
</g>
<g id="top_1_">
	<path id="top" class="st0" d="M77,13c0,0.6-0.5,1-1,1H38c-0.5,0-1-0.4-1-1c0-0.5,0.5-1,1-1h38C76.5,12,77,12.4,77,13z"/>
</g>
<g id="open_1_">
	<path id="open" class="st0" d="M59.9,13.2c0,0.2-0.1,0.4-0.2,0.5c0,0.1-0.1,0.1-0.2,0.2C59.2,14,59,14,58.7,14l-15.8-2.8
		c-0.4-0.1-0.7-0.3-0.8-0.6c-0.1-0.2,0-0.3,0-0.5s0.1-0.3,0.2-0.5c0-0.1,0.1-0.1,0.2-0.2c0.2-0.2,0.4-0.2,0.7-0.2L59.1,12
		c0.4,0.1,0.7,0.3,0.8,0.6C59.8,12.8,59.9,13,59.9,13.2z"/>
</g>
</svg>
