<?xml version="1.0" encoding="utf-8"?>
<!-- Generator: Adobe Illustrator 23.0.5, SVG Export Plug-In . SVG Version: 6.00 Build 0)  -->
<svg version="1.1" id="Layer_1" xmlns="http://www.w3.org/2000/svg" xmlns:xlink="http://www.w3.org/1999/xlink" x="0px" y="0px"
	 viewBox="0 0 56 127" style="enable-background:new 0 0 56 127;" xml:space="preserve">
<style type="text/css">
	.st0{fill:none;stroke:#0B0D0E;stroke-width:2;stroke-linecap:round;stroke-linejoin:round;}
	.st1{fill:#CBD1D7;stroke:#0B0D0E;stroke-width:2;stroke-linejoin:round;}
	.st2{fill:#393F46;stroke:#0B0D0E;stroke-width:2;stroke-linejoin:round;}
</style>
<g id="can" transform="translate(491.000000, 654.000000)">
	<line id="clip" class="st0" x1="-478.9" y1="-633.4" x2="-459.2" y2="-629.9"/>
	<path id="top" class="st1" d="M-482-630h38c1.1,0,2,0.9,2,2l0,0c0,1.1-0.9,2-2,2h-38c-1.1,0-2-0.9-2-2l0,0
		C-484-629.1-483.1-630-482-630z"/>
	<path id="top-copy" class="st1" d="M-482-653h38c1.1,0,2,0.9,2,2l0,0c0,1.1-0.9,2-2,2h-38c-1.1,0-2-0.9-2-2l0,0
		C-484-652.1-483.1-653-482-653z"/>
	<path id="bottom" class="st1" d="M-481.8-626h37.5c0.7,0,1.4,0.4,1.7,1l6.2,10.4c0.2,0.3,0.3,0.7,0.3,1v77.6c0,0.7-0.3,1.3-0.9,1.7
		l-2.4,1.5c-0.7,0.4-1.2,1-1.7,1.6l-1.6,2.3c-0.4,0.5-1,0.9-1.7,0.9h-37.7c-0.7,0-1.3-0.3-1.7-0.9l-1.6-2.3c-0.4-0.7-1-1.2-1.7-1.6
		l-2.4-1.5c-0.6-0.4-0.9-1-0.9-1.7v-77.6c0-0.4,0.1-0.7,0.3-1l6.2-10.4C-483.1-625.6-482.5-626-481.8-626z"/>
	<path id="body" class="st2" d="M-481.8-626h37.5c0.7,0,1.3,0.4,1.7,1l5.6,9.3c0.6,0.9,0.9,2,0.9,3.1v74.6c0,1.1-0.9,2-2,2h-50
		c-1.1,0-2-0.9-2-2v-74.6c0-1.1,0.3-2.2,0.9-3.1l5.6-9.3C-483.1-625.6-482.5-626-481.8-626z"/>
	<line id="open" class="st0" x1="-459.3" y1="-649.7" x2="-459.3" y2="-629.7"/>
</g>
</svg>
