<?xml version="1.0" encoding="UTF-8"?>
<svg width="95px" height="120px" viewBox="0 0 95 120" version="1.1" xmlns="http://www.w3.org/2000/svg" xmlns:xlink="http://www.w3.org/1999/xlink">
    <!-- Generator: Sketch 62 (91390) - https://sketch.com -->
    <title>coffee</title>
    <desc>Created with Sketch.</desc>
    <g id="Page-1" stroke="none" stroke-width="1" fill="none" fill-rule="evenodd">
        <g id="Desktop-HD-Copy-2" transform="translate(-501.000000, -526.000000)" stroke="#3E3E3E" stroke-width="2">
            <g id="coffee" transform="translate(502.000000, 527.000000)">
                <path d="M78,65 C79.1045695,65 80,65.8954305 80,67 L80,67 L79.9998177,72.1070158 C80.5017748,72.0994463 81.0293392,72.1413241 81.5781597,72.241489 C89.3729043,73.6641031 93.7489516,82.2235224 91.6762953,89.9587809 C89.6036391,97.6940394 81.72211,102.30307 74.0724073,100.253338 C73.8333406,100.186605 73.5982682,100.124643 73.3671903,100.067452 C66.2059222,110.874132 53.9351289,118 40,118 C17.90861,118 -1.42108547e-13,100.09139 -1.42108547e-13,78 L-1.42108547e-13,78 L-1.42108547e-13,67 C-1.42243818e-13,65.8954305 0.8954305,65 2,65 L2,65 Z M80.1073588,79.955331 L80.1073588,80.3248456 C80.1073588,85.522971 79.0514498,89.4478275 77.1523895,93.8648162 C80.5888218,94.4577583 83.9693068,92.0859901 84.9070171,88.2619434 C85.9077667,84.1972826 83.756549,81.0380948 80.1073588,79.955331 L80.1073588,79.955331 Z" id="Combined-Shape" fill="#FFFAF1"></path>
                <path d="M37,0 C37,5 43,5 43,10 C43,15 37,15 37,20 C37,25 43,25 43,30 C43,35 37,35 37,40 C37,45 46,44 43,50" id="Path-2" stroke-linecap="round"></path>
                <path d="M18.6122449,20 C18.6122449,25 22.2418745,25 22.2418745,30 C22.2418745,35 18.6122449,35 18.6122449,40 C18.6122449,45 24.0566893,44 22.2418745,50" id="Path-2-Copy" stroke-linecap="round"></path>
                <path d="M58,20 C58,25 61.6296296,25 61.6296296,30 C61.6296296,35 58,35 58,40 C58,45 63.4444444,44 61.6296296,50" id="Path-2-Copy" stroke-linecap="round" transform="translate(60.000000, 35.000000) scale(-1, 1) translate(-60.000000, -35.000000) "></path>
            </g>
        </g>
    </g>
</svg>