<?xml version="1.0" encoding="UTF-8"?>
<svg width="626px" height="162px" viewBox="0 0 626 162" version="1.1" xmlns="http://www.w3.org/2000/svg" xmlns:xlink="http://www.w3.org/1999/xlink">
    <!-- Generator: Sketch 62 (91390) - https://sketch.com -->
    <title>korean bar</title>
    <desc>Created with Sketch.</desc>
    <defs>
        <path d="M1391,510.5 L805,510.5 C803.619288,510.5 802.5,511.619288 802.5,513 L802.5,635 C802.5,636.380712 803.619288,637.5 805,637.5 L1391,637.5 C1392.38071,637.5 1393.5,636.380712 1393.5,635 L1393.5,513 C1393.5,511.619288 1392.38071,510.5 1391,510.5 Z M1390.5,513.5 L1390.5,634.5 L805.5,634.5 L805.5,513.5 L1390.5,513.5 Z M841.32002,617 C842.12002,617 842.759961,616.359961 842.759961,615.559961 L842.759961,598.67998 C842.759961,597.87998 842.12002,597.32002 841.32002,597.32002 C840.52002,597.32002 839.87998,597.87998 839.87998,598.67998 L839.87998,614.12002 L827.87998,614.12002 L827.87998,539.87998 L839.87998,539.87998 L839.87998,573.07998 C839.87998,577.32002 840.2,581.959961 842.67998,586.67998 C845.4,591.159961 861,615.32002 861.640039,616.359961 C861.87998,616.759961 862.359961,617 862.840039,617 L878.92002,617 C879.4,617 879.87998,616.759961 880.12002,616.27998 C880.359961,615.8 880.359961,615.240039 880.12002,614.840039 C879.87998,614.440039 855,574.12002 852.040039,568.2 C850.840039,565.87998 851.159961,562.92002 851.640039,561.47998 C852.27998,559.47998 859.47998,547.72002 864.440039,539.87998 L876.440039,539.87998 L860.040039,568.67998 C859.640039,569.4 859.87998,570.27998 860.6,570.67998 C861.32002,571.07998 862.2,570.840039 862.6,570.12002 L880.12002,539.159961 C880.359961,538.759961 880.359961,538.12002 880.12002,537.72002 C879.87998,537.32002 879.4,537 878.92002,537 L863.640039,537 C863.159961,537 862.67998,537.240039 862.440039,537.640039 C861.159961,539.640039 849.959961,557.47998 848.92002,560.6 C848.359961,562.27998 847.8,566.12002 849.47998,569.47998 C852.12002,574.759961 871.07998,605.47998 876.359961,614.12002 L863.559961,614.12002 C861,610.12002 847.559961,589.159961 845.159961,585.240039 C843.159961,581.32002 842.759961,577.559961 842.759961,573.07998 L842.759961,538.440039 C842.759961,537.640039 842.12002,537 841.32002,537 L826.440039,537 C825.640039,537 825,537.640039 825,538.440039 L825,615.559961 C825,616.359961 825.640039,617 826.440039,617 L841.32002,617 Z M915.9,618.2 C929.9,618.2 934.940039,597.352734 934.940039,577.824023 C934.940039,559.778418 932.37998,535.8 910.940039,535.8 C894.62002,535.8 886.7,549.066406 886.7,576.423242 C886.7,591.337598 888.7,601.72002 893.02002,609.218359 C893.259961,609.630371 893.82002,610.619238 894.859961,611.855273 C895.340039,612.514355 896.3,612.514355 896.859961,612.02002 C897.42002,611.525586 897.5,610.536719 897.02002,609.959961 C896.140039,608.88877 895.659961,607.982422 895.42002,607.652734 C891.5,600.73125 889.57998,590.513574 889.57998,576.423242 C889.57998,550.714355 896.37998,538.766406 910.940039,538.766406 C925.340039,538.766406 931.97998,551.208789 931.97998,577.824023 C931.97998,595.045605 927.82002,615.15127 916.059961,615.233594 L915.9,615.233594 C908.22002,615.233594 907.1,610.124805 906.3,606.746387 L906.140039,606.169629 C905.1,601.884766 905.17998,590.183984 905.259961,582.520801 C905.259961,580.790332 905.340039,579.307227 905.340039,578.071289 L905.340835,577.015313 C905.354307,568.399647 905.550195,560.044924 906.77998,556.482422 C907.97998,553.021582 909.42002,552.609668 910.62002,552.609668 C912.7,552.609668 913.9,553.186426 914.940039,556.564746 C916.3,561.014355 916.3,571.891211 916.3,576.505664 C916.3,577.98877 916.22002,591.172754 915.42002,596.281641 C914.940039,599.412793 914.22002,600.895996 912.940039,601.555273 C912.22002,601.884766 911.97998,602.791211 912.3,603.532715 C912.62002,604.274414 913.5,604.521582 914.22002,604.191992 C916.940039,602.791211 917.82002,599.659961 918.3,596.775977 C919.118227,591.949061 919.106498,580.710538 919.100822,577.169748 L919.100327,574.191726 C919.093347,568.576454 918.979978,559.880333 917.659961,555.658398 C916.3,551.373633 914.3,549.643262 910.62002,549.643262 C907.57998,549.643262 905.42002,551.703223 904.059961,555.575977 C902.7,559.44873 902.459961,567.441602 902.459961,578.071289 L902.459961,582.520801 C902.37998,590.34873 902.22002,602.132031 903.340039,606.828711 L903.42002,607.405664 C904.140039,610.619238 905.9,618.117578 915.740039,618.2 L915.9,618.2 Z M960.9,617 C961.7,617 962.259961,616.359961 962.259961,615.559961 L962.259961,588.6 L964.9,588.6 L972.259961,615.959961 C972.42002,616.6 972.97998,617 973.62002,617 L989.3,617 C989.77998,617 990.17998,616.840039 990.42002,616.440039 C990.659961,616.040039 990.82002,615.559961 990.659961,615.159961 L980.659961,584.759961 C980.740039,584.67998 980.9,584.6 980.97998,584.52002 C985.940039,580.440039 988.97998,572.359961 988.97998,562.92002 C988.97998,555.72002 987.37998,549.72002 984.259961,545 C979.22002,537.07998 971.3,537 964.42002,537 L946.340039,537 C945.540039,537 944.9,537.640039 944.9,538.440039 L944.9,566.12002 C944.9,566.92002 945.540039,567.559961 946.340039,567.559961 C947.140039,567.559961 947.77998,566.92002 947.77998,566.12002 L947.77998,539.87998 L964.42002,539.87998 C971.22002,539.87998 977.62002,539.87998 981.859961,546.52002 C984.659961,550.759961 986.1,556.27998 986.1,562.92002 C986.1,571.4 983.37998,578.840039 979.140039,582.27998 C978.82002,582.52002 978.5,582.840039 978.17998,583 C977.859961,583.240039 977.540039,583.640039 977.540039,584.040039 C977.540039,584.27998 977.540039,584.52002 977.62002,584.67998 L987.3,614.12002 L974.740039,614.12002 L967.37998,586.840039 C967.37998,586.6 967.140039,586.27998 966.97998,586.12002 C966.740039,585.87998 966.42002,585.640039 966.02002,585.640039 L960.9,585.640039 C960.1,585.640039 959.459961,586.27998 959.459961,587.07998 L959.459961,614.12002 L947.77998,614.12002 L947.77998,579.32002 C947.77998,575.87998 948.659961,575 952.1,575 L964.42002,575 C971.059961,575 973.540039,571.47998 973.540039,561.72002 C973.540039,558.6 973.540039,549.159961 964.42002,549.159961 L960.9,549.159961 C960.1,549.159961 959.459961,549.8 959.459961,550.6 L959.459961,564.2 C959.459961,565 960.1,565.640039 960.9,565.640039 C961.7,565.640039 962.259961,565 962.259961,564.2 L962.259961,552.040039 L964.42002,552.040039 C968.9,552.040039 970.659961,554.840039 970.659961,561.72002 C970.659961,571.47998 968.17998,572.12002 964.42002,572.12002 L952.1,572.12002 C947.059961,572.12002 944.9,574.27998 944.9,579.32002 L944.9,615.559961 C944.9,616.359961 945.540039,617 946.340039,617 L960.9,617 Z M1039.74004,617 C1040.54004,617 1041.17998,616.359961 1041.17998,615.559961 L1041.17998,602.040039 C1041.17998,601.240039 1040.54004,600.6 1039.74004,600.6 L1018.45996,600.6 L1018.45996,592.12002 C1018.45996,591.32002 1017.82002,590.67998 1017.02002,590.67998 C1016.22002,590.67998 1015.57998,591.32002 1015.57998,592.12002 L1015.57998,602.040039 C1015.57998,602.840039 1016.22002,603.47998 1017.02002,603.47998 L1038.3,603.47998 L1038.3,614.12002 L1003.57998,614.12002 L1003.57998,590.12002 C1003.57998,586.840039 1006.3,584.12002 1009.65996,584.12002 L1034.37998,584.12002 C1035.17998,584.12002 1035.82002,583.559961 1035.82002,582.759961 L1035.82002,569.87998 C1035.82002,569.07998 1035.17998,568.440039 1034.37998,568.440039 L1018.45996,568.440039 L1018.45996,553.4 L1039.74004,553.4 C1040.54004,553.4 1041.17998,552.759961 1041.17998,551.959961 L1041.17998,538.440039 C1041.17998,537.640039 1040.54004,537 1039.74004,537 L1002.14004,537 C1001.34004,537 1000.7,537.640039 1000.7,538.440039 L1000.7,576.67998 C1000.7,577.47998 1001.34004,578.040039 1002.14004,578.040039 C1002.94004,578.040039 1003.57998,577.47998 1003.57998,576.67998 L1003.57998,539.87998 L1038.3,539.87998 L1038.3,550.52002 L1017.02002,550.52002 C1016.22002,550.52002 1015.57998,551.159961 1015.57998,551.959961 L1015.57998,569.87998 C1015.57998,570.67998 1016.22002,571.32002 1017.02002,571.32002 L1033.02002,571.32002 L1033.02002,581.32002 L1009.34004,581.32002 C1004.54004,581.47998 1000.7,585.32002 1000.7,590.040039 L1000.7,615.559961 C1000.7,616.359961 1001.34004,617 1002.14004,617 L1039.74004,617 Z M1062.57998,617 C1062.74004,617 1062.97998,616.840039 1063.14004,616.67998 C1063.3,616.6 1063.45996,616.359961 1063.54004,616.2 C1063.54004,616.12002 1063.62002,615.87998 1063.62002,615.8 L1067.85996,592.67998 C1068.5,589 1069.45996,587.87998 1073.45996,587.87998 C1073.45996,587.87998 1073.62002,587.8 1073.62002,587.8 C1073.62002,587.8 1073.77998,587.87998 1073.77998,587.87998 L1080.1,587.87998 C1080.25996,587.87998 1080.42002,587.8 1080.57998,587.72002 C1080.74004,587.640039 1080.97998,587.47998 1081.05996,587.32002 C1081.14004,587.159961 1081.37998,586.92002 1081.37998,586.759961 L1081.37998,586.12002 L1075.14004,552.6 C1075.05996,551.959961 1074.5,551.47998 1073.77998,551.47998 C1073.05996,551.47998 1072.42002,551.959961 1072.34004,552.6 L1067.77998,577.240039 C1067.62002,578.040039 1068.17998,578.67998 1068.97998,578.840039 C1069.77998,579 1070.5,578.52002 1070.65996,577.72002 L1073.77998,560.759961 L1078.25996,585 L1073.45996,585 C1067.62002,585 1065.85996,587.72002 1065.05996,592.12002 L1061.05996,614.12002 L1049.37998,614.12002 L1055.94004,586.840039 L1067.14004,539.87998 L1080.34004,539.87998 L1091.62002,586.759961 L1098.17998,614.12002 L1086.57998,614.12002 L1084.74004,604.2 L1083.77998,598.67998 C1083.7,597.959961 1082.9,597.4 1082.17998,597.47998 L1074.82002,597.47998 C1074.02002,597.47998 1073.37998,598.12002 1073.37998,598.92002 C1073.37998,599.72002 1074.02002,600.359961 1074.82002,600.359961 L1081.14004,600.359961 L1081.94004,604.759961 L1084.02002,615.8 C1084.02002,615.87998 1084.17998,616.12002 1084.17998,616.2 C1084.25996,616.359961 1084.34004,616.52002 1084.5,616.67998 C1084.65996,616.759961 1084.9,617 1085.05996,617 L1100.02002,617 C1100.42002,617 1100.9,616.759961 1101.14004,616.440039 C1101.37998,616.12002 1101.37998,615.240039 1101.37998,615.240039 L1094.42002,586.12002 L1082.82002,538.12002 C1082.65996,537.47998 1082.1,537 1081.45996,537 L1066.02002,537 C1065.37998,537 1064.74004,537.47998 1064.57998,538.12002 L1053.05996,586.12002 L1046.1,615.240039 C1046.02002,615.640039 1046.17998,616.12002 1046.42002,616.440039 C1046.65996,616.759961 1047.14004,617 1047.54004,617 L1062.57998,617 Z M1125.62002,617 C1126.42002,617 1127.05996,616.359961 1127.05996,615.559961 L1127.05996,572.12002 L1146.57998,609.47998 L1146.57998,609.559961 L1148.17998,612.040039 C1150.5,615.559961 1153.37998,617 1158.17998,617 L1163.22002,617 C1164.02002,617 1164.57998,616.359961 1164.57998,615.559961 C1164.57998,614.759961 1164.02002,614.12002 1163.22002,614.12002 L1158.17998,614.12002 C1153.7,614.12002 1152.17998,612.840039 1150.65996,610.52002 L1149.05996,608.040039 L1126.9,565.640039 L1126.74004,565.47998 C1126.65996,565.32002 1126.5,565.159961 1126.34004,565.07998 C1126.17998,565 1125.94004,564.92002 1125.77998,564.92002 L1125.22002,564.92002 C1125.05996,564.92002 1124.9,565.07998 1124.74004,565.159961 C1124.57998,565.240039 1124.42002,565.4 1124.34004,565.559961 C1124.25996,565.72002 1124.17998,565.959961 1124.17998,566.12002 L1124.17998,614.12002 L1112.17998,614.12002 L1112.17998,539.87998 L1122.1,539.87998 C1126.02002,539.87998 1127.45996,541.159961 1129.22002,544.27998 L1161.94004,603.640039 L1162.02002,603.8 C1162.1,603.959961 1162.34004,604.12002 1162.5,604.2 C1162.65996,604.27998 1162.9,604.359961 1163.05996,604.359961 L1163.54004,604.359961 C1163.7,604.359961 1163.85996,604.2 1164.02002,604.12002 C1164.17998,604.040039 1164.34004,603.87998 1164.42002,603.72002 C1164.5,603.559961 1164.57998,603.32002 1164.57998,603.159961 L1164.57998,538.440039 C1164.57998,537.640039 1164.02002,537 1163.22002,537 L1147.85996,537 C1147.05996,537 1146.42002,537.640039 1146.42002,538.440039 L1146.42002,556.67998 C1146.42002,557.47998 1147.05996,558.12002 1147.85996,558.12002 C1148.65996,558.12002 1149.3,557.47998 1149.3,556.67998 L1149.3,539.87998 L1161.77998,539.87998 L1161.77998,597.4 L1131.7,542.92002 C1129.62002,539.240039 1127.3,537 1122.1,537 L1110.74004,537 C1109.94004,537 1109.3,537.640039 1109.3,538.440039 L1109.3,615.559961 C1109.3,615.959961 1109.45996,616.359961 1109.7,616.6 C1109.94004,616.840039 1110.34004,617 1110.74004,617 L1125.62002,617 Z M1250.34004,611.72002 C1253.05996,608.759961 1256.42002,603.4 1256.42002,594.759961 C1256.42002,582.27998 1251.05996,577.32002 1247.22002,575.240039 C1250.57998,573.240039 1254.34004,569.07998 1254.34004,558.440039 C1254.34004,551.8 1252.82002,546.840039 1249.45996,542.840039 C1244.82002,537 1239.45996,537 1230.5,537 L1210.74004,537 C1209.94004,537 1209.3,537.640039 1209.3,538.440039 L1209.3,550.759961 C1209.3,551.559961 1209.94004,552.2 1210.74004,552.2 L1230.5,552.2 C1234.9,552.2 1237.05996,555 1237.05996,560.6 C1237.05996,564.359961 1236.57998,568.12002 1230.5,568.12002 L1223.05996,568.12002 C1220.9,568.12002 1218.74004,569.640039 1218.74004,572.440039 L1218.74004,579.87998 C1218.74004,582.27998 1220.65996,584.12002 1223.05996,584.12002 L1230.34004,584.12002 C1234.57998,584.12002 1235.77998,584.440039 1236.97998,586.52002 C1237.62002,587.72002 1238.34004,589.640039 1238.34004,592.27998 C1238.34004,599.8 1235.77998,601.32002 1230.9,601.32002 L1220.17998,601.32002 C1219.37998,601.32002 1218.74004,601.959961 1218.74004,602.759961 C1218.74004,603.559961 1219.37998,604.12002 1220.17998,604.12002 L1230.9,604.12002 C1238.1,604.12002 1241.22002,600.6 1241.22002,592.27998 C1241.22002,589 1240.34004,586.67998 1239.54004,585.159961 C1237.58766,581.645675 1234.79661,581.33335 1230.64616,581.32047 L1223.05996,581.32002 C1222.25996,581.32002 1221.62002,580.67998 1221.62002,579.87998 L1221.62002,572.440039 C1221.62002,571.159961 1222.65996,571 1223.05996,571 L1230.5,571 C1239.94004,571 1239.94004,563.4 1239.94004,560.6 C1239.94004,553.47998 1236.5,549.4 1230.5,549.4 L1212.17998,549.4 L1212.17998,539.87998 L1230.5,539.87998 C1239.14004,539.87998 1243.37998,539.87998 1247.22002,544.67998 C1248.97998,546.840039 1251.45996,550.67998 1251.45996,558.440039 C1251.45996,570.359961 1246.34004,572.67998 1243.3,574.040039 C1242.74004,574.27998 1242.5,574.840039 1242.5,575.4 C1242.5,575.959961 1242.9,576.52002 1243.45996,576.67998 C1246.17998,577.72002 1253.54004,580.52002 1253.54004,594.759961 C1253.54004,602.52002 1250.65996,607.159961 1248.25996,609.72002 C1244.34004,614.12002 1236.74004,614.12002 1233.05996,614.12002 L1212.17998,614.12002 L1212.17998,560.12002 C1212.17998,559.32002 1211.54004,558.67998 1210.74004,558.67998 C1209.94004,558.67998 1209.3,559.32002 1209.3,560.12002 L1209.3,615.559961 C1209.3,616.359961 1209.94004,617 1210.74004,617 L1233.77931,616.999095 C1238.07065,616.983704 1245.88224,616.706668 1250.34004,611.72002 Z M1278.37998,617 C1278.54004,617 1278.77998,616.840039 1278.94004,616.67998 C1279.1,616.6 1279.25996,616.359961 1279.34004,616.2 C1279.34004,616.12002 1279.42002,615.87998 1279.42002,615.8 L1283.65996,592.67998 C1284.3,589 1285.25996,587.87998 1289.25996,587.87998 C1289.25996,587.87998 1289.42002,587.8 1289.42002,587.8 C1289.42002,587.8 1289.57998,587.87998 1289.57998,587.87998 L1295.9,587.87998 C1296.05996,587.87998 1296.22002,587.8 1296.37998,587.72002 C1296.54004,587.640039 1296.77998,587.47998 1296.85996,587.32002 C1296.94004,587.159961 1297.17998,586.92002 1297.17998,586.759961 L1297.17998,586.12002 L1290.94004,552.6 C1290.85996,551.959961 1290.3,551.47998 1289.57998,551.47998 C1288.85996,551.47998 1288.22002,551.959961 1288.14004,552.6 L1283.57998,577.240039 C1283.42002,578.040039 1283.97998,578.67998 1284.77998,578.840039 C1285.57998,579 1286.3,578.52002 1286.45996,577.72002 L1289.57998,560.759961 L1294.05996,585 L1289.25996,585 C1283.42002,585 1281.65996,587.72002 1280.85996,592.12002 L1276.85996,614.12002 L1265.17998,614.12002 L1271.74004,586.840039 L1282.94004,539.87998 L1296.14004,539.87998 L1307.42002,586.759961 L1313.97998,614.12002 L1302.37998,614.12002 L1300.54004,604.2 L1299.57998,598.67998 C1299.5,597.959961 1298.7,597.4 1297.97998,597.47998 L1290.62002,597.47998 C1289.82002,597.47998 1289.17998,598.12002 1289.17998,598.92002 C1289.17998,599.72002 1289.82002,600.359961 1290.62002,600.359961 L1296.94004,600.359961 L1297.74004,604.759961 L1299.82002,615.8 C1299.82002,615.87998 1299.97998,616.12002 1299.97998,616.2 C1300.05996,616.359961 1300.14004,616.52002 1300.3,616.67998 C1300.45996,616.759961 1300.7,617 1300.85996,617 L1315.82002,617 C1316.22002,617 1316.7,616.759961 1316.94004,616.440039 C1317.17998,616.12002 1317.17998,615.240039 1317.17998,615.240039 L1310.22002,586.12002 L1298.62002,538.12002 C1298.45996,537.47998 1297.9,537 1297.25996,537 L1281.82002,537 C1281.17998,537 1280.54004,537.47998 1280.37998,538.12002 L1268.85996,586.12002 L1261.9,615.240039 C1261.82002,615.640039 1261.97998,616.12002 1262.22002,616.440039 C1262.45996,616.759961 1262.94004,617 1263.34004,617 L1278.37998,617 Z M1341.1,617 C1341.9,617 1342.45996,616.359961 1342.45996,615.559961 L1342.45996,588.6 L1345.1,588.6 L1352.45996,615.959961 C1352.62002,616.6 1353.17998,617 1353.82002,617 L1369.5,617 C1369.97998,617 1370.37998,616.840039 1370.62002,616.440039 C1370.85996,616.040039 1371.02002,615.559961 1370.85996,615.159961 L1360.85996,584.759961 C1360.94004,584.67998 1361.1,584.6 1361.17998,584.52002 C1366.14004,580.440039 1369.17998,572.359961 1369.17998,562.92002 C1369.17998,555.72002 1367.57998,549.72002 1364.45996,545 C1359.42002,537.07998 1351.5,537 1344.62002,537 L1326.54004,537 C1325.74004,537 1325.1,537.640039 1325.1,538.440039 L1325.1,566.12002 C1325.1,566.92002 1325.74004,567.559961 1326.54004,567.559961 C1327.34004,567.559961 1327.97998,566.92002 1327.97998,566.12002 L1327.97998,539.87998 L1344.62002,539.87998 C1351.42002,539.87998 1357.82002,539.87998 1362.05996,546.52002 C1364.85996,550.759961 1366.3,556.27998 1366.3,562.92002 C1366.3,571.4 1363.57998,578.840039 1359.34004,582.27998 C1359.02002,582.52002 1358.7,582.840039 1358.37998,583 C1358.05996,583.240039 1357.74004,583.640039 1357.74004,584.040039 C1357.74004,584.27998 1357.74004,584.52002 1357.82002,584.67998 L1367.5,614.12002 L1354.94004,614.12002 L1347.57998,586.840039 C1347.57998,586.6 1347.34004,586.27998 1347.17998,586.12002 C1346.94004,585.87998 1346.62002,585.640039 1346.22002,585.640039 L1341.1,585.640039 C1340.3,585.640039 1339.65996,586.27998 1339.65996,587.07998 L1339.65996,614.12002 L1327.97998,614.12002 L1327.97998,579.32002 C1327.97998,575.87998 1328.85996,575 1332.3,575 L1344.62002,575 C1351.25996,575 1353.74004,571.47998 1353.74004,561.72002 C1353.74004,558.6 1353.74004,549.159961 1344.62002,549.159961 L1341.1,549.159961 C1340.3,549.159961 1339.65996,549.8 1339.65996,550.6 L1339.65996,564.2 C1339.65996,565 1340.3,565.640039 1341.1,565.640039 C1341.9,565.640039 1342.45996,565 1342.45996,564.2 L1342.45996,552.040039 L1344.62002,552.040039 C1349.1,552.040039 1350.85996,554.840039 1350.85996,561.72002 C1350.85996,571.47998 1348.37998,572.12002 1344.62002,572.12002 L1332.3,572.12002 C1327.25996,572.12002 1325.1,574.27998 1325.1,579.32002 L1325.1,615.559961 C1325.1,616.359961 1325.74004,617 1326.54004,617 L1341.1,617 Z" id="path-1"></path>
        <filter x="-4.6%" y="-21.3%" width="109.1%" height="142.5%" filterUnits="objectBoundingBox" id="filter-2">
            <feMorphology radius="1" operator="dilate" in="SourceAlpha" result="shadowSpreadOuter1"></feMorphology>
            <feOffset dx="0" dy="0" in="shadowSpreadOuter1" result="shadowOffsetOuter1"></feOffset>
            <feGaussianBlur stdDeviation="8" in="shadowOffsetOuter1" result="shadowBlurOuter1"></feGaussianBlur>
            <feColorMatrix values="0 0 0 0 1   0 0 0 0 0.101960784   0 0 0 0 0.278431373  0 0 0 1 0" type="matrix" in="shadowBlurOuter1"></feColorMatrix>
        </filter>
    </defs>
    <g id="Page-1" stroke="none" stroke-width="1" fill="none" fill-rule="evenodd">
        <g id="Desktop-HD-Copy-4" transform="translate(-785.000000, -493.000000)" fill-rule="nonzero">
            <g id="korean-bar">
                <use fill="black" fill-opacity="1" filter="url(#filter-2)" xlink:href="#path-1"></use>
                <use fill="#FFE6EB" xlink:href="#path-1"></use>
            </g>
        </g>
    </g>
</svg>