<?xml version="1.0" encoding="UTF-8"?>
<svg width="591px" height="127px" viewBox="0 0 591 127" version="1.1" xmlns="http://www.w3.org/2000/svg" xmlns:xlink="http://www.w3.org/1999/xlink">
    <!-- Generator: Sketch 62 (91390) - https://sketch.com -->
    <title>korean bar copy</title>
    <desc>Created with Sketch.</desc>
    <g id="Page-1" stroke="none" stroke-width="1" fill="none" fill-rule="evenodd">
        <g id="Desktop-HD-Copy-4" transform="translate(-803.000000, -737.000000)" fill="#FFD000" fill-rule="nonzero">
            <path d="M1391.5,737 L805.5,737 C804.119288,737 803,738.119288 803,739.5 L803,861.5 C803,862.880712 804.119288,864 805.5,864 L1391.5,864 C1392.88071,864 1394,862.880712 1394,861.5 L1394,739.5 C1394,738.119288 1392.88071,737 1391.5,737 Z M1391,740 L1391,861 L806,861 L806,740 L1391,740 Z M841.82002,843.5 C842.62002,843.5 843.259961,842.859961 843.259961,842.059961 L843.259961,825.17998 C843.259961,824.37998 842.62002,823.82002 841.82002,823.82002 C841.02002,823.82002 840.37998,824.37998 840.37998,825.17998 L840.37998,840.62002 L828.37998,840.62002 L828.37998,766.37998 L840.37998,766.37998 L840.37998,799.57998 C840.37998,803.82002 840.7,808.459961 843.17998,813.17998 C845.9,817.659961 861.5,841.82002 862.140039,842.859961 C862.37998,843.259961 862.859961,843.5 863.340039,843.5 L879.42002,843.5 C879.9,843.5 880.37998,843.259961 880.62002,842.77998 C880.859961,842.3 880.859961,841.740039 880.62002,841.340039 C880.37998,840.940039 855.5,800.62002 852.540039,794.7 C851.340039,792.37998 851.659961,789.42002 852.140039,787.97998 C852.77998,785.97998 859.97998,774.22002 864.940039,766.37998 L876.940039,766.37998 L860.540039,795.17998 C860.140039,795.9 860.37998,796.77998 861.1,797.17998 C861.82002,797.57998 862.7,797.340039 863.1,796.62002 L880.62002,765.659961 C880.859961,765.259961 880.859961,764.62002 880.62002,764.22002 C880.37998,763.82002 879.9,763.5 879.42002,763.5 L864.140039,763.5 C863.659961,763.5 863.17998,763.740039 862.940039,764.140039 C861.659961,766.140039 850.459961,783.97998 849.42002,787.1 C848.859961,788.77998 848.3,792.62002 849.97998,795.97998 C852.62002,801.259961 871.57998,831.97998 876.859961,840.62002 L864.059961,840.62002 C861.5,836.62002 848.059961,815.659961 845.659961,811.740039 C843.659961,807.82002 843.259961,804.059961 843.259961,799.57998 L843.259961,764.940039 C843.259961,764.140039 842.62002,763.5 841.82002,763.5 L826.940039,763.5 C826.140039,763.5 825.5,764.140039 825.5,764.940039 L825.5,842.059961 C825.5,842.859961 826.140039,843.5 826.940039,843.5 L841.82002,843.5 Z M916.4,844.7 C930.4,844.7 935.440039,823.852734 935.440039,804.324023 C935.440039,786.278418 932.87998,762.3 911.440039,762.3 C895.12002,762.3 887.2,775.566406 887.2,802.923242 C887.2,817.837598 889.2,828.22002 893.52002,835.718359 C893.759961,836.130371 894.32002,837.119238 895.359961,838.355273 C895.840039,839.014355 896.8,839.014355 897.359961,838.52002 C897.92002,838.025586 898,837.036719 897.52002,836.459961 C896.640039,835.38877 896.159961,834.482422 895.92002,834.152734 C892,827.23125 890.07998,817.013574 890.07998,802.923242 C890.07998,777.214355 896.87998,765.266406 911.440039,765.266406 C925.840039,765.266406 932.47998,777.708789 932.47998,804.324023 C932.47998,821.545605 928.32002,841.65127 916.559961,841.733594 L916.4,841.733594 C908.72002,841.733594 907.6,836.624805 906.8,833.246387 L906.640039,832.669629 C905.6,828.384766 905.67998,816.683984 905.759961,809.020801 C905.759961,807.290332 905.840039,805.807227 905.840039,804.571289 L905.840835,803.515313 C905.854307,794.899647 906.050195,786.544924 907.27998,782.982422 C908.47998,779.521582 909.92002,779.109668 911.12002,779.109668 C913.2,779.109668 914.4,779.686426 915.440039,783.064746 C916.8,787.514355 916.8,798.391211 916.8,803.005664 C916.8,804.48877 916.72002,817.672754 915.92002,822.781641 C915.440039,825.912793 914.72002,827.395996 913.440039,828.055273 C912.72002,828.384766 912.47998,829.291211 912.8,830.032715 C913.12002,830.774414 914,831.021582 914.72002,830.691992 C917.440039,829.291211 918.32002,826.159961 918.8,823.275977 C919.618227,818.449061 919.606498,807.210538 919.600822,803.669748 L919.600327,800.691726 C919.593347,795.076454 919.479978,786.380333 918.159961,782.158398 C916.8,777.873633 914.8,776.143262 911.12002,776.143262 C908.07998,776.143262 905.92002,778.203223 904.559961,782.075977 C903.2,785.94873 902.959961,793.941602 902.959961,804.571289 L902.959961,809.020801 C902.87998,816.84873 902.72002,828.632031 903.840039,833.328711 L903.92002,833.905664 C904.640039,837.119238 906.4,844.617578 916.240039,844.7 L916.4,844.7 Z M961.4,843.5 C962.2,843.5 962.759961,842.859961 962.759961,842.059961 L962.759961,815.1 L965.4,815.1 L972.759961,842.459961 C972.92002,843.1 973.47998,843.5 974.12002,843.5 L989.8,843.5 C990.27998,843.5 990.67998,843.340039 990.92002,842.940039 C991.159961,842.540039 991.32002,842.059961 991.159961,841.659961 L981.159961,811.259961 C981.240039,811.17998 981.4,811.1 981.47998,811.02002 C986.440039,806.940039 989.47998,798.859961 989.47998,789.42002 C989.47998,782.22002 987.87998,776.22002 984.759961,771.5 C979.72002,763.57998 971.8,763.5 964.92002,763.5 L946.840039,763.5 C946.040039,763.5 945.4,764.140039 945.4,764.940039 L945.4,792.62002 C945.4,793.42002 946.040039,794.059961 946.840039,794.059961 C947.640039,794.059961 948.27998,793.42002 948.27998,792.62002 L948.27998,766.37998 L964.92002,766.37998 C971.72002,766.37998 978.12002,766.37998 982.359961,773.02002 C985.159961,777.259961 986.6,782.77998 986.6,789.42002 C986.6,797.9 983.87998,805.340039 979.640039,808.77998 C979.32002,809.02002 979,809.340039 978.67998,809.5 C978.359961,809.740039 978.040039,810.140039 978.040039,810.540039 C978.040039,810.77998 978.040039,811.02002 978.12002,811.17998 L987.8,840.62002 L975.240039,840.62002 L967.87998,813.340039 C967.87998,813.1 967.640039,812.77998 967.47998,812.62002 C967.240039,812.37998 966.92002,812.140039 966.52002,812.140039 L961.4,812.140039 C960.6,812.140039 959.959961,812.77998 959.959961,813.57998 L959.959961,840.62002 L948.27998,840.62002 L948.27998,805.82002 C948.27998,802.37998 949.159961,801.5 952.6,801.5 L964.92002,801.5 C971.559961,801.5 974.040039,797.97998 974.040039,788.22002 C974.040039,785.1 974.040039,775.659961 964.92002,775.659961 L961.4,775.659961 C960.6,775.659961 959.959961,776.3 959.959961,777.1 L959.959961,790.7 C959.959961,791.5 960.6,792.140039 961.4,792.140039 C962.2,792.140039 962.759961,791.5 962.759961,790.7 L962.759961,778.540039 L964.92002,778.540039 C969.4,778.540039 971.159961,781.340039 971.159961,788.22002 C971.159961,797.97998 968.67998,798.62002 964.92002,798.62002 L952.6,798.62002 C947.559961,798.62002 945.4,800.77998 945.4,805.82002 L945.4,842.059961 C945.4,842.859961 946.040039,843.5 946.840039,843.5 L961.4,843.5 Z M1040.24004,843.5 C1041.04004,843.5 1041.67998,842.859961 1041.67998,842.059961 L1041.67998,828.540039 C1041.67998,827.740039 1041.04004,827.1 1040.24004,827.1 L1018.95996,827.1 L1018.95996,818.62002 C1018.95996,817.82002 1018.32002,817.17998 1017.52002,817.17998 C1016.72002,817.17998 1016.07998,817.82002 1016.07998,818.62002 L1016.07998,828.540039 C1016.07998,829.340039 1016.72002,829.97998 1017.52002,829.97998 L1038.8,829.97998 L1038.8,840.62002 L1004.07998,840.62002 L1004.07998,816.62002 C1004.07998,813.340039 1006.8,810.62002 1010.15996,810.62002 L1034.87998,810.62002 C1035.67998,810.62002 1036.32002,810.059961 1036.32002,809.259961 L1036.32002,796.37998 C1036.32002,795.57998 1035.67998,794.940039 1034.87998,794.940039 L1018.95996,794.940039 L1018.95996,779.9 L1040.24004,779.9 C1041.04004,779.9 1041.67998,779.259961 1041.67998,778.459961 L1041.67998,764.940039 C1041.67998,764.140039 1041.04004,763.5 1040.24004,763.5 L1002.64004,763.5 C1001.84004,763.5 1001.2,764.140039 1001.2,764.940039 L1001.2,803.17998 C1001.2,803.97998 1001.84004,804.540039 1002.64004,804.540039 C1003.44004,804.540039 1004.07998,803.97998 1004.07998,803.17998 L1004.07998,766.37998 L1038.8,766.37998 L1038.8,777.02002 L1017.52002,777.02002 C1016.72002,777.02002 1016.07998,777.659961 1016.07998,778.459961 L1016.07998,796.37998 C1016.07998,797.17998 1016.72002,797.82002 1017.52002,797.82002 L1033.52002,797.82002 L1033.52002,807.82002 L1009.84004,807.82002 C1005.04004,807.97998 1001.2,811.82002 1001.2,816.540039 L1001.2,842.059961 C1001.2,842.859961 1001.84004,843.5 1002.64004,843.5 L1040.24004,843.5 Z M1063.07998,843.5 C1063.24004,843.5 1063.47998,843.340039 1063.64004,843.17998 C1063.8,843.1 1063.95996,842.859961 1064.04004,842.7 C1064.04004,842.62002 1064.12002,842.37998 1064.12002,842.3 L1068.35996,819.17998 C1069,815.5 1069.95996,814.37998 1073.95996,814.37998 C1073.95996,814.37998 1074.12002,814.3 1074.12002,814.3 C1074.12002,814.3 1074.27998,814.37998 1074.27998,814.37998 L1080.6,814.37998 C1080.75996,814.37998 1080.92002,814.3 1081.07998,814.22002 C1081.24004,814.140039 1081.47998,813.97998 1081.55996,813.82002 C1081.64004,813.659961 1081.87998,813.42002 1081.87998,813.259961 L1081.87998,812.62002 L1075.64004,779.1 C1075.55996,778.459961 1075,777.97998 1074.27998,777.97998 C1073.55996,777.97998 1072.92002,778.459961 1072.84004,779.1 L1068.27998,803.740039 C1068.12002,804.540039 1068.67998,805.17998 1069.47998,805.340039 C1070.27998,805.5 1071,805.02002 1071.15996,804.22002 L1074.27998,787.259961 L1078.75996,811.5 L1073.95996,811.5 C1068.12002,811.5 1066.35996,814.22002 1065.55996,818.62002 L1061.55996,840.62002 L1049.87998,840.62002 L1056.44004,813.340039 L1067.64004,766.37998 L1080.84004,766.37998 L1092.12002,813.259961 L1098.67998,840.62002 L1087.07998,840.62002 L1085.24004,830.7 L1084.27998,825.17998 C1084.2,824.459961 1083.4,823.9 1082.67998,823.97998 L1075.32002,823.97998 C1074.52002,823.97998 1073.87998,824.62002 1073.87998,825.42002 C1073.87998,826.22002 1074.52002,826.859961 1075.32002,826.859961 L1081.64004,826.859961 L1082.44004,831.259961 L1084.52002,842.3 C1084.52002,842.37998 1084.67998,842.62002 1084.67998,842.7 C1084.75996,842.859961 1084.84004,843.02002 1085,843.17998 C1085.15996,843.259961 1085.4,843.5 1085.55996,843.5 L1100.52002,843.5 C1100.92002,843.5 1101.4,843.259961 1101.64004,842.940039 C1101.87998,842.62002 1101.87998,841.740039 1101.87998,841.740039 L1094.92002,812.62002 L1083.32002,764.62002 C1083.15996,763.97998 1082.6,763.5 1081.95996,763.5 L1066.52002,763.5 C1065.87998,763.5 1065.24004,763.97998 1065.07998,764.62002 L1053.55996,812.62002 L1046.6,841.740039 C1046.52002,842.140039 1046.67998,842.62002 1046.92002,842.940039 C1047.15996,843.259961 1047.64004,843.5 1048.04004,843.5 L1063.07998,843.5 Z M1126.12002,843.5 C1126.92002,843.5 1127.55996,842.859961 1127.55996,842.059961 L1127.55996,798.62002 L1147.07998,835.97998 L1147.07998,836.059961 L1148.67998,838.540039 C1151,842.059961 1153.87998,843.5 1158.67998,843.5 L1163.72002,843.5 C1164.52002,843.5 1165.07998,842.859961 1165.07998,842.059961 C1165.07998,841.259961 1164.52002,840.62002 1163.72002,840.62002 L1158.67998,840.62002 C1154.2,840.62002 1152.67998,839.340039 1151.15996,837.02002 L1149.55996,834.540039 L1127.4,792.140039 L1127.24004,791.97998 C1127.15996,791.82002 1127,791.659961 1126.84004,791.57998 C1126.67998,791.5 1126.44004,791.42002 1126.27998,791.42002 L1125.72002,791.42002 C1125.55996,791.42002 1125.4,791.57998 1125.24004,791.659961 C1125.07998,791.740039 1124.92002,791.9 1124.84004,792.059961 C1124.75996,792.22002 1124.67998,792.459961 1124.67998,792.62002 L1124.67998,840.62002 L1112.67998,840.62002 L1112.67998,766.37998 L1122.6,766.37998 C1126.52002,766.37998 1127.95996,767.659961 1129.72002,770.77998 L1162.44004,830.140039 L1162.52002,830.3 C1162.6,830.459961 1162.84004,830.62002 1163,830.7 C1163.15996,830.77998 1163.4,830.859961 1163.55996,830.859961 L1164.04004,830.859961 C1164.2,830.859961 1164.35996,830.7 1164.52002,830.62002 C1164.67998,830.540039 1164.84004,830.37998 1164.92002,830.22002 C1165,830.059961 1165.07998,829.82002 1165.07998,829.659961 L1165.07998,764.940039 C1165.07998,764.140039 1164.52002,763.5 1163.72002,763.5 L1148.35996,763.5 C1147.55996,763.5 1146.92002,764.140039 1146.92002,764.940039 L1146.92002,783.17998 C1146.92002,783.97998 1147.55996,784.62002 1148.35996,784.62002 C1149.15996,784.62002 1149.8,783.97998 1149.8,783.17998 L1149.8,766.37998 L1162.27998,766.37998 L1162.27998,823.9 L1132.2,769.42002 C1130.12002,765.740039 1127.8,763.5 1122.6,763.5 L1111.24004,763.5 C1110.44004,763.5 1109.8,764.140039 1109.8,764.940039 L1109.8,842.059961 C1109.8,842.459961 1109.95996,842.859961 1110.2,843.1 C1110.44004,843.340039 1110.84004,843.5 1111.24004,843.5 L1126.12002,843.5 Z M1250.84004,838.22002 C1253.55996,835.259961 1256.92002,829.9 1256.92002,821.259961 C1256.92002,808.77998 1251.55996,803.82002 1247.72002,801.740039 C1251.07998,799.740039 1254.84004,795.57998 1254.84004,784.940039 C1254.84004,778.3 1253.32002,773.340039 1249.95996,769.340039 C1245.32002,763.5 1239.95996,763.5 1231,763.5 L1211.24004,763.5 C1210.44004,763.5 1209.8,764.140039 1209.8,764.940039 L1209.8,777.259961 C1209.8,778.059961 1210.44004,778.7 1211.24004,778.7 L1231,778.7 C1235.4,778.7 1237.55996,781.5 1237.55996,787.1 C1237.55996,790.859961 1237.07998,794.62002 1231,794.62002 L1223.55996,794.62002 C1221.4,794.62002 1219.24004,796.140039 1219.24004,798.940039 L1219.24004,806.37998 C1219.24004,808.77998 1221.15996,810.62002 1223.55996,810.62002 L1230.84004,810.62002 C1235.07998,810.62002 1236.27998,810.940039 1237.47998,813.02002 C1238.12002,814.22002 1238.84004,816.140039 1238.84004,818.77998 C1238.84004,826.3 1236.27998,827.82002 1231.4,827.82002 L1220.67998,827.82002 C1219.87998,827.82002 1219.24004,828.459961 1219.24004,829.259961 C1219.24004,830.059961 1219.87998,830.62002 1220.67998,830.62002 L1231.4,830.62002 C1238.6,830.62002 1241.72002,827.1 1241.72002,818.77998 C1241.72002,815.5 1240.84004,813.17998 1240.04004,811.659961 C1238.08766,808.145675 1235.29661,807.83335 1231.14616,807.82047 L1223.55996,807.82002 C1222.75996,807.82002 1222.12002,807.17998 1222.12002,806.37998 L1222.12002,798.940039 C1222.12002,797.659961 1223.15996,797.5 1223.55996,797.5 L1231,797.5 C1240.44004,797.5 1240.44004,789.9 1240.44004,787.1 C1240.44004,779.97998 1237,775.9 1231,775.9 L1212.67998,775.9 L1212.67998,766.37998 L1231,766.37998 C1239.64004,766.37998 1243.87998,766.37998 1247.72002,771.17998 C1249.47998,773.340039 1251.95996,777.17998 1251.95996,784.940039 C1251.95996,796.859961 1246.84004,799.17998 1243.8,800.540039 C1243.24004,800.77998 1243,801.340039 1243,801.9 C1243,802.459961 1243.4,803.02002 1243.95996,803.17998 C1246.67998,804.22002 1254.04004,807.02002 1254.04004,821.259961 C1254.04004,829.02002 1251.15996,833.659961 1248.75996,836.22002 C1244.84004,840.62002 1237.24004,840.62002 1233.55996,840.62002 L1212.67998,840.62002 L1212.67998,786.62002 C1212.67998,785.82002 1212.04004,785.17998 1211.24004,785.17998 C1210.44004,785.17998 1209.8,785.82002 1209.8,786.62002 L1209.8,842.059961 C1209.8,842.859961 1210.44004,843.5 1211.24004,843.5 L1234.27931,843.499095 C1238.57065,843.483704 1246.38224,843.206668 1250.84004,838.22002 Z M1278.87998,843.5 C1279.04004,843.5 1279.27998,843.340039 1279.44004,843.17998 C1279.6,843.1 1279.75996,842.859961 1279.84004,842.7 C1279.84004,842.62002 1279.92002,842.37998 1279.92002,842.3 L1284.15996,819.17998 C1284.8,815.5 1285.75996,814.37998 1289.75996,814.37998 C1289.75996,814.37998 1289.92002,814.3 1289.92002,814.3 C1289.92002,814.3 1290.07998,814.37998 1290.07998,814.37998 L1296.4,814.37998 C1296.55996,814.37998 1296.72002,814.3 1296.87998,814.22002 C1297.04004,814.140039 1297.27998,813.97998 1297.35996,813.82002 C1297.44004,813.659961 1297.67998,813.42002 1297.67998,813.259961 L1297.67998,812.62002 L1291.44004,779.1 C1291.35996,778.459961 1290.8,777.97998 1290.07998,777.97998 C1289.35996,777.97998 1288.72002,778.459961 1288.64004,779.1 L1284.07998,803.740039 C1283.92002,804.540039 1284.47998,805.17998 1285.27998,805.340039 C1286.07998,805.5 1286.8,805.02002 1286.95996,804.22002 L1290.07998,787.259961 L1294.55996,811.5 L1289.75996,811.5 C1283.92002,811.5 1282.15996,814.22002 1281.35996,818.62002 L1277.35996,840.62002 L1265.67998,840.62002 L1272.24004,813.340039 L1283.44004,766.37998 L1296.64004,766.37998 L1307.92002,813.259961 L1314.47998,840.62002 L1302.87998,840.62002 L1301.04004,830.7 L1300.07998,825.17998 C1300,824.459961 1299.2,823.9 1298.47998,823.97998 L1291.12002,823.97998 C1290.32002,823.97998 1289.67998,824.62002 1289.67998,825.42002 C1289.67998,826.22002 1290.32002,826.859961 1291.12002,826.859961 L1297.44004,826.859961 L1298.24004,831.259961 L1300.32002,842.3 C1300.32002,842.37998 1300.47998,842.62002 1300.47998,842.7 C1300.55996,842.859961 1300.64004,843.02002 1300.8,843.17998 C1300.95996,843.259961 1301.2,843.5 1301.35996,843.5 L1316.32002,843.5 C1316.72002,843.5 1317.2,843.259961 1317.44004,842.940039 C1317.67998,842.62002 1317.67998,841.740039 1317.67998,841.740039 L1310.72002,812.62002 L1299.12002,764.62002 C1298.95996,763.97998 1298.4,763.5 1297.75996,763.5 L1282.32002,763.5 C1281.67998,763.5 1281.04004,763.97998 1280.87998,764.62002 L1269.35996,812.62002 L1262.4,841.740039 C1262.32002,842.140039 1262.47998,842.62002 1262.72002,842.940039 C1262.95996,843.259961 1263.44004,843.5 1263.84004,843.5 L1278.87998,843.5 Z M1341.6,843.5 C1342.4,843.5 1342.95996,842.859961 1342.95996,842.059961 L1342.95996,815.1 L1345.6,815.1 L1352.95996,842.459961 C1353.12002,843.1 1353.67998,843.5 1354.32002,843.5 L1370,843.5 C1370.47998,843.5 1370.87998,843.340039 1371.12002,842.940039 C1371.35996,842.540039 1371.52002,842.059961 1371.35996,841.659961 L1361.35996,811.259961 C1361.44004,811.17998 1361.6,811.1 1361.67998,811.02002 C1366.64004,806.940039 1369.67998,798.859961 1369.67998,789.42002 C1369.67998,782.22002 1368.07998,776.22002 1364.95996,771.5 C1359.92002,763.57998 1352,763.5 1345.12002,763.5 L1327.04004,763.5 C1326.24004,763.5 1325.6,764.140039 1325.6,764.940039 L1325.6,792.62002 C1325.6,793.42002 1326.24004,794.059961 1327.04004,794.059961 C1327.84004,794.059961 1328.47998,793.42002 1328.47998,792.62002 L1328.47998,766.37998 L1345.12002,766.37998 C1351.92002,766.37998 1358.32002,766.37998 1362.55996,773.02002 C1365.35996,777.259961 1366.8,782.77998 1366.8,789.42002 C1366.8,797.9 1364.07998,805.340039 1359.84004,808.77998 C1359.52002,809.02002 1359.2,809.340039 1358.87998,809.5 C1358.55996,809.740039 1358.24004,810.140039 1358.24004,810.540039 C1358.24004,810.77998 1358.24004,811.02002 1358.32002,811.17998 L1368,840.62002 L1355.44004,840.62002 L1348.07998,813.340039 C1348.07998,813.1 1347.84004,812.77998 1347.67998,812.62002 C1347.44004,812.37998 1347.12002,812.140039 1346.72002,812.140039 L1341.6,812.140039 C1340.8,812.140039 1340.15996,812.77998 1340.15996,813.57998 L1340.15996,840.62002 L1328.47998,840.62002 L1328.47998,805.82002 C1328.47998,802.37998 1329.35996,801.5 1332.8,801.5 L1345.12002,801.5 C1351.75996,801.5 1354.24004,797.97998 1354.24004,788.22002 C1354.24004,785.1 1354.24004,775.659961 1345.12002,775.659961 L1341.6,775.659961 C1340.8,775.659961 1340.15996,776.3 1340.15996,777.1 L1340.15996,790.7 C1340.15996,791.5 1340.8,792.140039 1341.6,792.140039 C1342.4,792.140039 1342.95996,791.5 1342.95996,790.7 L1342.95996,778.540039 L1345.12002,778.540039 C1349.6,778.540039 1351.35996,781.340039 1351.35996,788.22002 C1351.35996,797.97998 1348.87998,798.62002 1345.12002,798.62002 L1332.8,798.62002 C1327.75996,798.62002 1325.6,800.77998 1325.6,805.82002 L1325.6,842.059961 C1325.6,842.859961 1326.24004,843.5 1327.04004,843.5 L1341.6,843.5 Z" id="korean-bar-copy"></path>
        </g>
    </g>
</svg>