<?xml version="1.0" encoding="utf-8"?>
<!-- Generator: Adobe Illustrator 23.0.5, SVG Export Plug-In . SVG Version: 6.00 Build 0)  -->
<svg version="1.1" id="Layer_1" xmlns="http://www.w3.org/2000/svg" xmlns:xlink="http://www.w3.org/1999/xlink" x="0px" y="0px"
	 viewBox="0 0 17 30" style="enable-background:new 0 0 17 30;" xml:space="preserve">
<style type="text/css">
	.st0{fill:#0B0D0E;}
</style>
<title>icon / pear</title>
<desc>Created with Sketch.</desc>
<g id="Page-1">
	<g id="Desktop-HD-Copy-13" transform="translate(-161.000000, -10.000000)">
		<g transform="translate(155.000000, 10.000000)">
			<path id="Combined-Shape" class="st0" d="M14.7,9.6c2.8,0,3.6,2.6,4.9,5.9c0.8,1.5,2.2,2.7,2.9,4.4c-2.9,0.4-5,2.8-5,5.9
				c0,1.1,0.4,2.2,1.1,3.1c-1.1,0.3-2.4,0.3-3.8-0.1c-4.5,1.2-8.1-1.2-8.1-6.9c0-3,2.2-4.5,3.2-6.4C11.1,12.1,11.9,9.6,14.7,9.6z
				 M21.3,0l0.3,0c0.1,1.9-0.5,3.6-1.7,4.8C18.6,6.1,17,6.7,15,6.6c-0.1-1.9,0.5-3.6,1.7-4.8C18,0.5,19.6-0.1,21.6,0L21.3,0z"/>
		</g>
	</g>
</g>
</svg>
