<?xml version="1.0" encoding="utf-8"?>
<!-- Generator: Adobe Illustrator 23.0.5, SVG Export Plug-In . SVG Version: 6.00 Build 0)  -->
<svg version="1.1" id="Layer_1" xmlns="http://www.w3.org/2000/svg" xmlns:xlink="http://www.w3.org/1999/xlink" x="0px" y="0px"
	 viewBox="0 0 202 139" style="enable-background:new 0 0 202 139;" xml:space="preserve">
<style type="text/css">
	.st0{fill:#DFE2E6;stroke:#0B0D0E;stroke-width:2;stroke-linejoin:round;}
	.st1{fill:#CBD1D7;stroke:#0B0D0E;stroke-width:2;stroke-linejoin:round;}
	.st2{fill:#393F46;stroke:#0B0D0E;stroke-width:2;stroke-linejoin:round;}
</style>
<g id="ramyun" transform="translate(170.000000, 365.000000)">
	<g id="chopstick-noodles" transform="translate(-0.000000, 27.000000)">
		<polygon id="chopstick-bottom" class="st0" points="-169,-358.7 -31.8,-358.7 4.7,-357.2 4.7,-355 -31.8,-353.5 -169,-353.5 		"/>
		<g id="noodles" transform="translate(144.736842, 2.631579)">
			<path id="noodles-background" class="st1" d="M-168.5-364h26.3c1.4,0.7,2.1,2.5,2.1,5.3c0,4.2-2.6,5.8-2.6,10.5
				c0,4.7,2.6,5.6,2.6,10.5s-2.1,6.3-2.1,10.5h-26.3c0-4.2,2.1-5.8,2.1-10.5s-2.6-5.8-2.6-10.5c0-4.7,2.6-6.3,2.6-10.5
				C-166.4-361.5-167.1-363.3-168.5-364z"/>
			<path id="Path-Copy-5" class="st0" d="M-163.2-327.2c0-4.2,2.1-5.8,2.1-10.5s-2.6-5.8-2.6-10.5c0-4.7,2.6-6.3,2.6-10.5
				c0-2.8-0.7-4.6-2.1-5.3"/>
			<path id="Path-Copy-6" class="st0" d="M-157.9-327.2c0-4.2,2.1-5.8,2.1-10.5s-2.6-5.8-2.6-10.5c0-4.7,2.6-6.3,2.6-10.5
				c0-2.8-0.7-4.6-2.1-5.3"/>
			<path id="Path-Copy-7" class="st0" d="M-152.7-327.2c0-4.2,2.1-5.8,2.1-10.5s-2.6-5.8-2.6-10.5c0-4.7,2.6-6.3,2.6-10.5
				c0-2.8-0.7-4.6-2.1-5.3"/>
			<path id="Path-Copy-8" class="st0" d="M-147.4-327.2c0-4.2,2.1-5.8,2.1-10.5s-2.6-5.8-2.6-10.5c0-4.7,2.6-6.3,2.6-10.5
				c0-2.8-0.7-4.6-2.1-5.3"/>
		</g>
		<polygon id="chopstick-top" class="st0" points="-169,-364 -31.8,-364 4.7,-362.5 4.7,-360.2 -31.8,-358.7 -169,-358.7 		"/>
	</g>
	<polygon id="chopstick-bottom-copy" class="st0" points="-169,-358.7 -31.8,-358.7 4.7,-357.2 4.7,-355 -31.8,-353.5 -169,-353.5 	
		"/>
	<g id="noodles-copy" transform="translate(144.736842, 2.631579)">
		<path class="st1" d="M-168.5-364h26.3c1.4,0.7,2.1,2.5,2.1,5.3c0,4.2-2.6,5.8-2.6,10.5c0,4.7,2.6,5.6,2.6,10.5s-2.1,6.3-2.1,10.5
			h-26.3c0-4.2,2.1-5.8,2.1-10.5s-2.6-5.8-2.6-10.5c0-4.7,2.6-6.3,2.6-10.5C-166.4-361.5-167.1-363.3-168.5-364z"/>
		<path class="st0" d="M-163.2-327.2c0-4.2,2.1-5.8,2.1-10.5s-2.6-5.8-2.6-10.5c0-4.7,2.6-6.3,2.6-10.5c0-2.8-0.7-4.6-2.1-5.3"/>
		<path class="st0" d="M-157.9-327.2c0-4.2,2.1-5.8,2.1-10.5s-2.6-5.8-2.6-10.5c0-4.7,2.6-6.3,2.6-10.5c0-2.8-0.7-4.6-2.1-5.3"/>
		<path class="st0" d="M-152.7-327.2c0-4.2,2.1-5.8,2.1-10.5s-2.6-5.8-2.6-10.5c0-4.7,2.6-6.3,2.6-10.5c0-2.8-0.7-4.6-2.1-5.3"/>
		<path class="st0" d="M-147.4-327.2c0-4.2,2.1-5.8,2.1-10.5s-2.6-5.8-2.6-10.5c0-4.7,2.6-6.3,2.6-10.5c0-2.8-0.7-4.6-2.1-5.3"/>
	</g>
	<polygon id="chopstick-top-copy" class="st0" points="-169,-364 -31.8,-364 4.7,-362.5 4.7,-360.2 -31.8,-358.7 -169,-358.7 	"/>
	<path id="noodles-cup" class="st2" d="M-50.6-322.4h77.9l-10.5,94.7h-56.8L-50.6-322.4z M-54.3-325.5H31v3.2h-85.3V-325.5z"/>
</g>
</svg>
