<?xml version="1.0" encoding="utf-8"?>
<!-- Generator: Adobe Illustrator 23.0.5, SVG Export Plug-In . SVG Version: 6.00 Build 0)  -->
<svg version="1.1" id="Layer_1" xmlns="http://www.w3.org/2000/svg" xmlns:xlink="http://www.w3.org/1999/xlink" x="0px" y="0px"
	 viewBox="0 0 60 203" style="enable-background:new 0 0 60 203;" xml:space="preserve">
<style type="text/css">
	.st0{fill:#CBD1D7;stroke:#0B0D0E;stroke-width:2;stroke-linejoin:round;}
	.st1{fill:#393F46;stroke:#0B0D0E;stroke-width:2;stroke-linejoin:round;}
	.st2{fill:#0B0D0E;stroke:#0B0D0E;}
	.st3{fill-rule:evenodd;clip-rule:evenodd;fill:#FFFFFF;stroke:#263238;stroke-width:2;}
</style>
<g id="soju" transform="translate(1139.000000, 464.000000)">
	<path id="Rectangle-Copy-2" class="st0" d="M-1120-448h22l3.8,47.6c0.1,1.6,0.6,3.1,1.4,4.4l9.8,16.2c1.9,3.1,2.9,6.7,2.9,10.4
		v97.4c0,5.5-4.5,10-10,10h-38c-5.5,0-10-4.5-10-10v-97.4c0-3.7,1-7.3,2.9-10.4l9.8-16.2c0.8-1.3,1.3-2.8,1.4-4.4L-1120-448
		L-1120-448z"/>
	<path class="st1" d="M-1096.5-429l2.3,28.7c0.1,1.6,0.6,3.1,1.4,4.4l9.8,16.2c1.9,3.1,2.9,6.7,2.9,10.4v97.4c0,5.5-4.5,10-10,10
		h-38c-5.5,0-10-4.5-10-10v-97.4c0-3.7,1-7.3,2.9-10.4l9.8-16.2c0.8-1.3,1.3-2.8,1.4-4.4l2.3-28.7l0,0L-1096.5-429z"/>
	<path id="Rectangle-Copy-3" class="st2" d="M-1119-463h20c1.1,0,2,0.9,2,2v11c0,1.1-0.9,2-2,2h-20c-1.1,0-2-0.9-2-2v-11
		C-1121-462.1-1120.1-463-1119-463z"/>
	<rect id="Rectangle" x="-1138" y="-364" class="st3" width="58" height="76"/>
</g>
</svg>
