<?xml version="1.0" encoding="utf-8"?>
<!-- Generator: Adobe Illustrator 23.0.5, SVG Export Plug-In . SVG Version: 6.00 Build 0)  -->
<svg version="1.1" id="Layer_1" xmlns="http://www.w3.org/2000/svg" xmlns:xlink="http://www.w3.org/1999/xlink" x="0px" y="0px"
	 viewBox="0 0 60 203" style="enable-background:new 0 0 60 203;" xml:space="preserve">
<style type="text/css">
	.st0{fill-rule:evenodd;clip-rule:evenodd;fill:#9CD539;}
	.st1{fill-rule:evenodd;clip-rule:evenodd;fill:#68D539;}
	.st2{fill-rule:evenodd;clip-rule:evenodd;fill:#D56139;}
	.st3{fill-rule:evenodd;clip-rule:evenodd;fill:#FFFFFF;}
</style>
<polygon id="neck" class="st0" points="41.4,34 18.6,34 19.9,17 40.1,17 "/>
<path id="top" class="st1" d="M58,94.6V99H2v-4.4c0-3.5,1-6.9,2.8-9.9l9.8-16.2c0.9-1.5,1.4-3.1,1.6-4.9L18.4,36h23.2l2.2,27.7
	c0.1,1.7,0.7,3.4,1.6,4.9l9.8,16.2C57,87.7,58,91.1,58,94.6z"/>
<rect id="body" x="2" y="101" class="st1" width="56" height="74"/>
<path id="bottom" class="st1" d="M2,177h56v15c0,5-4,9-9,9H11c-5,0-9-4-9-9V177z"/>
<path id="cap" class="st2" d="M41,3v11c0,0.6-0.5,1-1,1H20c-0.5,0-1-0.4-1-1V3c0-0.5,0.5-1,1-1h20C40.5,2,41,2.4,41,3z"/>
<rect id="label" x="2" y="101" class="st3" width="56" height="74"/>
</svg>
