<?xml version="1.0" encoding="UTF-8"?>
<svg width="12px" height="12px" viewBox="0 0 12 12" version="1.1" xmlns="http://www.w3.org/2000/svg" xmlns:xlink="http://www.w3.org/1999/xlink">
    <!-- Generator: Sketch 62 (91390) - https://sketch.com -->
    <title>window</title>
    <desc>Created with Sketch.</desc>
    <g id="Symbols" stroke="none" stroke-width="1" fill="none" fill-rule="evenodd">
        <g id="window" transform="translate(-357.000000, -6.000000)" fill="#0B0D0E" fill-rule="nonzero">
            <g id="Group-5">
                <g transform="translate(337.000000, 4.000000)">
                    <g id="Group-3" transform="translate(19.000000, 1.000000)">
                        <g id="Group-2" transform="translate(1.000000, 1.000000)">
                            <path d="M12,11 C12,11.5522847 11.5522847,12 11,12 L11,12 L1,12 C0.44771525,12 0,11.5522847 0,11 L0,11 L0,1 C0,0.44771525 0.44771525,0 1,0 L1,0 L11,0 C11.5522847,0 12,0.44771525 12,1 L12,1 Z M10,4 L2,4 L2,10 L10,10 L10,4 Z" id="window"></path>
                        </g>
                    </g>
                </g>
            </g>
        </g>
    </g>
</svg>